<svg width="24" height="24" viewBox="0 0 24 24" fill="none" xmlns="http://www.w3.org/2000/svg">
<g clip-path="url(#clip0_1_76)">
<path d="M8 11H5C4.448 11 4 10.552 4 10C4 9.448 4.448 9 5 9H8C8.552 9 9 9.448 9 10C9 10.552 8.552 11 8 11ZM23.759 23.651C23.561 23.881 23.281 24 22.999 24C22.769 24 22.537 23.921 22.349 23.759L19.84 21.608C18.799 22.476 17.461 22.999 16 22.999C12.686 22.999 10 20.313 10 16.999C10 13.685 12.686 10.999 16 10.999C19.314 10.999 22 13.685 22 16.999C22 18.129 21.682 19.183 21.138 20.086L23.651 22.24C24.07 22.599 24.119 23.232 23.759 23.651ZM16.979 19.326L19.682 16.712C20.08 16.329 20.093 15.696 19.711 15.298C19.328 14.899 18.694 14.888 18.297 15.269L15.584 17.893C15.441 18.034 15.205 18.037 15.062 17.895L13.708 16.564C13.312 16.176 12.68 16.183 12.294 16.578C11.907 16.973 11.913 17.605 12.308 17.992L13.662 19.324C14.122 19.773 14.724 19.998 15.325 19.998C15.926 19.998 16.526 19.773 16.978 19.327L16.979 19.326ZM11 23C11 23.552 10.552 24 10 24H5C2.243 24 0 21.757 0 19V5C0 2.243 2.243 0 5 0H9.515C11.385 0 13.142 0.728 14.465 2.05L17.95 5.535C18.838 6.423 19.471 7.535 19.783 8.752C19.86 9.051 19.794 9.369 19.604 9.613C19.414 9.857 19.123 10 18.814 10H13.001C11.347 10 10.001 8.654 10.001 7V2.023C9.841 2.008 9.679 2 9.516 2H5.001C3.347 2 2.001 3.346 2.001 5V19C2.001 20.654 3.347 22 5.001 22H10.001C10.553 22 11.001 22.448 11.001 23H11ZM12 7C12 7.551 12.449 8 13 8H17.338C17.119 7.618 16.849 7.264 16.535 6.95L13.05 3.465C12.732 3.147 12.379 2.878 12 2.659V7ZM7 13H5C4.448 13 4 13.448 4 14C4 14.552 4.448 15 5 15H7C7.552 15 8 14.552 8 14C8 13.448 7.552 13 7 13ZM7 17H5C4.448 17 4 17.448 4 18C4 18.552 4.448 19 5 19H7C7.552 19 8 18.552 8 18C8 17.448 7.552 17 7 17Z" fill="#202020"/>
</g>
<defs>
<clipPath id="clip0_1_76">
<rect width="24" height="24" fill="white"/>
</clipPath>
</defs>
</svg>
