<svg width="30" height="46" viewBox="0 0 30 46" fill="none" xmlns="http://www.w3.org/2000/svg">
<path d="M8.68 40.972C8.512 41.42 8.272 41.808 7.96 42.136C7.648 42.456 7.28 42.7 6.856 42.868C6.44 43.036 5.984 43.12 5.488 43.12C4.736 43.12 4.084 42.956 3.532 42.628C2.988 42.292 2.564 41.82 2.26 41.212C1.964 40.604 1.816 39.88 1.816 39.04C1.816 38.2 1.964 37.476 2.26 36.868C2.564 36.26 2.988 35.792 3.532 35.464C4.084 35.128 4.728 34.96 5.464 34.96C5.976 34.96 6.432 35.032 6.832 35.176C7.232 35.312 7.572 35.52 7.852 35.8C8.14 36.072 8.368 36.408 8.536 36.808L7.588 37.252C7.412 36.796 7.156 36.452 6.82 36.22C6.492 35.98 6.064 35.86 5.536 35.86C5 35.86 4.528 35.988 4.12 36.244C3.712 36.492 3.392 36.852 3.16 37.324C2.936 37.796 2.824 38.368 2.824 39.04C2.824 39.704 2.932 40.276 3.148 40.756C3.364 41.228 3.672 41.592 4.072 41.848C4.472 42.096 4.944 42.22 5.488 42.22C6.016 42.22 6.476 42.088 6.868 41.824C7.26 41.552 7.544 41.148 7.72 40.612L8.68 40.972ZM10.3426 43V34.24H11.3026V37.9C11.5106 37.54 11.7866 37.28 12.1306 37.12C12.4746 36.96 12.8506 36.88 13.2586 36.88C13.6906 36.88 14.0826 36.964 14.4346 37.132C14.7866 37.292 15.0666 37.54 15.2746 37.876C15.4906 38.212 15.5986 38.64 15.5986 39.16V43H14.6386V39.496C14.6386 38.832 14.4946 38.372 14.2066 38.116C13.9266 37.852 13.5786 37.72 13.1626 37.72C12.8746 37.72 12.5866 37.788 12.2986 37.924C12.0106 38.06 11.7706 38.284 11.5786 38.596C11.3946 38.9 11.3026 39.308 11.3026 39.82V43H10.3426ZM21.2763 39.124C21.2763 38.676 21.1563 38.332 20.9163 38.092C20.6763 37.844 20.3363 37.72 19.8963 37.72C19.4803 37.72 19.1283 37.812 18.8403 37.996C18.5523 38.172 18.3403 38.46 18.2043 38.86L17.4243 38.38C17.5843 37.932 17.8803 37.572 18.3123 37.3C18.7443 37.02 19.2803 36.88 19.9203 36.88C20.3523 36.88 20.7443 36.956 21.0963 37.108C21.4483 37.252 21.7243 37.476 21.9243 37.78C22.1323 38.076 22.2363 38.46 22.2363 38.932V41.836C22.2363 42.124 22.3883 42.268 22.6923 42.268C22.8443 42.268 22.9923 42.248 23.1363 42.208L23.0883 42.964C22.9283 43.044 22.7203 43.084 22.4643 43.084C22.2323 43.084 22.0243 43.04 21.8403 42.952C21.6563 42.864 21.5123 42.732 21.4083 42.556C21.3043 42.372 21.2523 42.144 21.2523 41.872V41.752L21.4923 41.788C21.3963 42.1 21.2323 42.356 21.0003 42.556C20.7683 42.748 20.5083 42.892 20.2203 42.988C19.9323 43.076 19.6483 43.12 19.3683 43.12C19.0163 43.12 18.6883 43.06 18.3843 42.94C18.0803 42.82 17.8363 42.64 17.6523 42.4C17.4763 42.152 17.3883 41.848 17.3883 41.488C17.3883 41.04 17.5363 40.672 17.8323 40.384C18.1363 40.088 18.5563 39.888 19.0923 39.784L21.4683 39.316V40.108L19.5363 40.504C19.1443 40.584 18.8523 40.696 18.6603 40.84C18.4683 40.984 18.3723 41.184 18.3723 41.44C18.3723 41.688 18.4683 41.892 18.6603 42.052C18.8603 42.204 19.1403 42.28 19.5003 42.28C19.7323 42.28 19.9523 42.252 20.1603 42.196C20.3763 42.132 20.5683 42.04 20.7363 41.92C20.9043 41.792 21.0363 41.636 21.1323 41.452C21.2283 41.26 21.2763 41.036 21.2763 40.78V39.124ZM25.7508 35.296V41.344C25.7508 41.64 25.8348 41.86 26.0028 42.004C26.1708 42.148 26.3868 42.22 26.6508 42.22C26.8828 42.22 27.0828 42.18 27.2508 42.1C27.4188 42.02 27.5708 41.912 27.7068 41.776L28.0428 42.58C27.8588 42.748 27.6388 42.88 27.3828 42.976C27.1348 43.072 26.8468 43.12 26.5188 43.12C26.2148 43.12 25.9308 43.068 25.6668 42.964C25.4028 42.852 25.1908 42.68 25.0308 42.448C24.8788 42.208 24.7988 41.896 24.7908 41.512V35.56L25.7508 35.296ZM27.9348 37V37.828H23.5908V37H27.9348Z" fill="black"/>
<g clip-path="url(#clip0_1_50)">
<path d="M25 2.5H5C3.625 2.5 2.5 3.625 2.5 5V27.5L7.5 22.5H25C26.375 22.5 27.5 21.375 27.5 20V5C27.5 3.625 26.375 2.5 25 2.5ZM25 20H7.5L5 22.5V5H25V20Z" fill="#434343"/>
</g>
<defs>
<clipPath id="clip0_1_50">
<rect width="30" height="30" fill="white"/>
</clipPath>
</defs>
</svg>
