<svg width="30" height="46" viewBox="0 0 30 46" fill="none" xmlns="http://www.w3.org/2000/svg">
<path d="M6.875 1.25C5.83947 1.25 5 2.08947 5 3.125V26.875C5 27.9105 5.83947 28.75 6.875 28.75H23.125C24.1605 28.75 25 27.9105 25 26.875V8.75L17.5 1.25H6.875Z" fill="#4E8DF5"/>
<path d="M6.875 28.75C5.83947 28.75 5 27.9105 5 26.875V26.5625C5 27.598 5.83947 28.4375 6.875 28.4375H23.125C24.1605 28.4375 25 27.598 25 26.5625V26.875C25 27.9105 24.1605 28.75 23.125 28.75H6.875Z" fill="#417EE9"/>
<path d="M6.875 1.25C5.83947 1.25 5 2.08947 5 3.125V3.4375C5 2.40197 5.83947 1.5625 6.875 1.5625H17.8125L17.5 1.25H6.875Z" fill="#639AF6"/>
<path d="M25 15.1562V8.75L23.9062 7.65625H18.6317C18.214 7.65625 18.0049 8.16116 18.3002 8.45646L25 15.1562Z" fill="url(#paint0_linear_1_44)"/>
<path d="M17.5 1.25L25 8.75H19.375C18.3395 8.75 17.5 7.91053 17.5 6.875V1.25Z" fill="#A6C5FA"/>
<path d="M20 15H10V16.25H20V15Z" fill="white"/>
<path d="M20 17.5H10V18.75H20V17.5Z" fill="white"/>
<path d="M10 20H20V21.25H10V20Z" fill="white"/>
<path d="M17.5 22.5H10V23.75H17.5V22.5Z" fill="white"/>
<path d="M7.852 35.08C9.092 35.08 10.064 35.424 10.768 36.112C11.48 36.792 11.836 37.768 11.836 39.04C11.836 40.312 11.48 41.292 10.768 41.98C10.064 42.66 9.092 43 7.852 43H5.296V35.08H7.852ZM7.948 42.1C8.852 42.1 9.556 41.832 10.06 41.296C10.572 40.752 10.828 40 10.828 39.04C10.828 38.08 10.572 37.332 10.06 36.796C9.556 36.252 8.852 35.98 7.948 35.98H6.256V42.1H7.948ZM16.2484 36.88C16.8164 36.88 17.3164 37.004 17.7484 37.252C18.1884 37.5 18.5324 37.86 18.7804 38.332C19.0284 38.796 19.1524 39.352 19.1524 40C19.1524 40.648 19.0284 41.208 18.7804 41.68C18.5324 42.144 18.1884 42.5 17.7484 42.748C17.3164 42.996 16.8164 43.12 16.2484 43.12C15.6884 43.12 15.1884 42.996 14.7484 42.748C14.3084 42.5 13.9644 42.144 13.7164 41.68C13.4684 41.208 13.3444 40.648 13.3444 40C13.3444 39.352 13.4684 38.796 13.7164 38.332C13.9644 37.86 14.3084 37.5 14.7484 37.252C15.1884 37.004 15.6884 36.88 16.2484 36.88ZM16.2484 37.708C15.8404 37.708 15.4924 37.8 15.2044 37.984C14.9164 38.168 14.6924 38.432 14.5324 38.776C14.3804 39.112 14.3044 39.52 14.3044 40C14.3044 40.472 14.3804 40.88 14.5324 41.224C14.6924 41.568 14.9164 41.832 15.2044 42.016C15.4924 42.2 15.8404 42.292 16.2484 42.292C16.6564 42.292 17.0044 42.2 17.2924 42.016C17.5804 41.832 17.8004 41.568 17.9524 41.224C18.1124 40.88 18.1924 40.472 18.1924 40C18.1924 39.52 18.1124 39.112 17.9524 38.776C17.8004 38.432 17.5804 38.168 17.2924 37.984C17.0044 37.8 16.6564 37.708 16.2484 37.708ZM23.4438 36.88C23.8598 36.88 24.2238 36.944 24.5358 37.072C24.8558 37.2 25.1318 37.384 25.3638 37.624C25.5958 37.864 25.7838 38.148 25.9278 38.476L25.0158 38.908C24.8878 38.524 24.6918 38.232 24.4278 38.032C24.1718 37.824 23.8358 37.72 23.4198 37.72C23.0198 37.72 22.6758 37.812 22.3878 37.996C22.0998 38.172 21.8798 38.432 21.7278 38.776C21.5758 39.112 21.4998 39.52 21.4998 40C21.4998 40.472 21.5758 40.88 21.7278 41.224C21.8798 41.568 22.0998 41.832 22.3878 42.016C22.6758 42.192 23.0198 42.28 23.4198 42.28C23.7318 42.28 23.9998 42.232 24.2238 42.136C24.4558 42.04 24.6438 41.9 24.7878 41.716C24.9398 41.532 25.0438 41.308 25.0998 41.044L25.9878 41.356C25.8518 41.724 25.6638 42.04 25.4238 42.304C25.1918 42.568 24.9078 42.772 24.5718 42.916C24.2438 43.052 23.8678 43.12 23.4438 43.12C22.8838 43.12 22.3838 42.996 21.9438 42.748C21.5038 42.5 21.1598 42.144 20.9118 41.68C20.6638 41.208 20.5398 40.648 20.5398 40C20.5398 39.352 20.6638 38.796 20.9118 38.332C21.1598 37.86 21.5038 37.5 21.9438 37.252C22.3838 37.004 22.8838 36.88 23.4438 36.88Z" fill="black"/>
<defs>
<linearGradient id="paint0_linear_1_44" x1="21.25" y1="15.1563" x2="21.25" y2="7.5" gradientUnits="userSpaceOnUse">
<stop stop-color="#4E8DF5"/>
<stop offset="1" stop-color="#3D6ACD"/>
</linearGradient>
</defs>
</svg>
