<svg width="24" height="24" viewBox="0 0 24 24" fill="none" xmlns="http://www.w3.org/2000/svg">
<g clip-path="url(#clip0_1_80)">
<path d="M5 6C5 5.447 5.448 5 6 5H9C9.552 5 10 5.447 10 6C10 6.553 9.552 7 9 7H6C5.448 7 5 6.553 5 6ZM11 9H6C5.448 9 5 9.447 5 10C5 10.553 5.448 11 6 11H11C11.552 11 12 10.553 12 10C12 9.447 11.552 9 11 9ZM11 13H6C5.448 13 5 13.447 5 14C5 14.553 5.448 15 6 15H11C11.552 15 12 14.553 12 14C12 13.447 11.552 13 11 13ZM23.939 4.657C23.795 4.262 23.419 4 23 4H19.999L18.937 1.02C18.791 0.629 18.417 0.369 18 0.369C17.583 0.369 17.208 0.629 17.063 1.02L16.001 4H13C12.581 4 12.206 4.262 12.062 4.655C11.917 5.049 12.034 5.49 12.354 5.762L14.731 7.697L13.79 10.713C13.663 11.118 13.805 11.559 14.144 11.814C14.321 11.947 14.532 12.014 14.744 12.014C14.938 12.014 15.132 11.958 15.3 11.845L18.008 10.033L20.762 11.826C21.117 12.057 21.581 12.039 21.918 11.78C22.255 11.521 22.391 11.077 22.257 10.674L21.278 7.694L23.644 5.767C23.965 5.496 24.083 5.054 23.939 4.659V4.657ZM22 20V20.5C22 22.43 20.43 24 18.5 24H3.499C1.57 24 0 22.43 0 20.5V5C0 2.243 2.243 0 5 0H13C13.552 0 14 0.447 14 1C14 1.553 13.552 2 13 2H5C3.346 2 2 3.346 2 5V20.5C2 21.327 2.673 22 3.5 22C4.327 22 5 21.327 5 20.5V20C5 18.346 6.346 17 8 17H17V14C17 13.447 17.448 13 18 13C18.552 13 19 13.447 19 14V17C20.654 17 22 18.346 22 20ZM20 20C20 19.448 19.551 19 19 19H8C7.449 19 7 19.448 7 20V20.5C7 21.036 6.878 21.545 6.662 22H18.5C19.327 22 20 21.327 20 20.5V20Z" fill="#202020"/>
</g>
<defs>
<clipPath id="clip0_1_80">
<rect width="24" height="24" fill="white"/>
</clipPath>
</defs>
</svg>
