<svg width="24" height="24" viewBox="0 0 24 24" fill="none" xmlns="http://www.w3.org/2000/svg">
<g clip-path="url(#clip0_1_68)">
<path d="M20.5 15.121V8.76401C20.892 8.62201 21.262 8.40301 21.576 8.08901L23.14 6.52501C24.285 5.38001 24.285 3.51801 23.14 2.37401L21.576 0.810014C20.43 -0.335986 18.568 -0.333986 17.425 0.810014L15.861 2.37401C15.552 2.68301 15.33 3.05101 15.186 3.45001H8.864C8.388 1.47701 6.619 0.00101362 4.501 0.00101362C2.019 1.36197e-05 0 2.01901 0 4.50001C0 6.45301 1.258 8.10201 3 8.72401V16H2.801C1.257 16 0 17.256 0 18.8V21.2C0 22.744 1.257 24 2.801 24H5.2C6.744 24 8 22.744 8 21.2V18.8C8 17.256 6.744 16 5.2 16H5V8.94901C6.927 8.73201 8.492 7.31401 8.895 5.44801H15.185C15.329 5.84701 15.551 6.21501 15.86 6.52401L17.424 8.08801C17.738 8.40201 18.107 8.62101 18.499 8.76301V15.12C16.499 15.577 14.999 17.362 14.999 19.499C14.999 21.98 17.018 23.999 19.499 23.999C21.98 23.999 23.999 21.98 23.999 19.499C23.999 17.362 22.499 15.577 20.499 15.12L20.5 15.121ZM6 18.8V21.2C6 21.641 5.642 22 5.2 22H2.801C2.36 22 2 21.642 2 21.2V18.8C2 18.359 2.359 18 2.801 18H5.2C5.641 18 6 18.358 6 18.8ZM4.5 7.00001C3.121 7.00001 2 5.87801 2 4.50001C2 3.12201 3.121 2.00001 4.5 2.00001C5.879 2.00001 7 3.12201 7 4.50001C7 5.87801 5.879 7.00001 4.5 7.00001ZM17.274 5.11001C17.097 4.93301 17.001 4.69801 17.001 4.44801C17.001 4.19801 17.098 3.96301 17.274 3.78601L18.838 2.22201C19.015 2.04501 19.25 1.94801 19.5 1.94801C19.75 1.94801 19.984 2.04501 20.161 2.22201L21.725 3.78601C21.902 3.96301 21.999 4.19801 21.999 4.44801C21.999 4.69801 21.901 4.93301 21.725 5.11001L20.161 6.67401C19.807 7.02801 19.19 7.02701 18.838 6.67401L17.274 5.11001ZM19.5 22C18.121 22 17 20.879 17 19.5C17 18.121 18.121 17 19.5 17C20.879 17 22 18.121 22 19.5C22 20.879 20.879 22 19.5 22Z" fill="#202020"/>
</g>
<defs>
<clipPath id="clip0_1_68">
<rect width="24" height="24" fill="white"/>
</clipPath>
</defs>
</svg>
