<svg width="34" height="46" viewBox="0 0 34 46" fill="none" xmlns="http://www.w3.org/2000/svg">
<path d="M8.875 1.25C7.83947 1.25 7 2.08947 7 3.125V26.875C7 27.9105 7.83947 28.75 8.875 28.75H25.125C26.1605 28.75 27 27.9105 27 26.875V8.75L19.5 1.25H8.875Z" fill="#20A464"/>
<path d="M8.875 28.75C7.83947 28.75 7 27.9105 7 26.875V26.5625C7 27.598 7.83947 28.4375 8.875 28.4375H25.125C26.1605 28.4375 27 27.598 27 26.5625V26.875C27 27.9105 26.1605 28.75 25.125 28.75H8.875Z" fill="#149456"/>
<path d="M8.875 1.25C7.83947 1.25 7 2.08947 7 3.125V3.4375C7 2.40197 7.83947 1.5625 8.875 1.5625H19.8125L19.5 1.25H8.875Z" fill="#38AE74"/>
<path d="M27 15.1562V8.75L25.9062 7.65625H20.6317C20.214 7.65625 20.0049 8.16116 20.3002 8.45646L27 15.1562Z" fill="url(#paint0_linear_1_47)"/>
<path d="M19.5 1.25L27 8.75H21.375C20.3395 8.75 19.5 7.91053 19.5 6.875V1.25Z" fill="#8ED1B1"/>
<path fill-rule="evenodd" clip-rule="evenodd" d="M22 14.6875V23.75H12V14.6875H22ZM16.375 15.9375H13.25V17.5H16.375V15.9375ZM17.625 17.5V15.9375H20.75V17.5H17.625ZM16.375 18.4375H13.25V20H16.375V18.4375ZM17.625 20V18.4375H20.75V20H17.625ZM16.375 20.9375H13.25V22.5H16.375V20.9375ZM17.625 22.5V20.9375H20.75V22.5H17.625Z" fill="white"/>
<path d="M3.84 34.96C4.536 34.96 5.136 35.104 5.64 35.392C6.144 35.672 6.564 36.088 6.9 36.64L6.096 37.264C5.8 36.752 5.464 36.392 5.088 36.184C4.72 35.968 4.272 35.86 3.744 35.86C3.32 35.86 2.968 35.92 2.688 36.04C2.416 36.16 2.216 36.32 2.088 36.52C1.96 36.712 1.896 36.932 1.896 37.18C1.896 37.46 1.984 37.708 2.16 37.924C2.336 38.132 2.688 38.296 3.216 38.416L4.932 38.8C5.692 38.968 6.22 39.224 6.516 39.568C6.82 39.904 6.972 40.324 6.972 40.828C6.972 41.276 6.844 41.676 6.588 42.028C6.34 42.372 5.988 42.64 5.532 42.832C5.076 43.024 4.54 43.12 3.924 43.12C3.348 43.12 2.84 43.044 2.4 42.892C1.968 42.732 1.596 42.52 1.284 42.256C0.972 41.992 0.716 41.696 0.516 41.368L1.356 40.684C1.508 40.988 1.704 41.256 1.944 41.488C2.184 41.72 2.472 41.9 2.808 42.028C3.152 42.156 3.544 42.22 3.984 42.22C4.392 42.22 4.744 42.172 5.04 42.076C5.344 41.972 5.576 41.824 5.736 41.632C5.896 41.432 5.976 41.192 5.976 40.912C5.976 40.656 5.892 40.428 5.724 40.228C5.556 40.02 5.24 39.864 4.776 39.76L2.916 39.34C2.428 39.228 2.032 39.076 1.728 38.884C1.432 38.684 1.216 38.452 1.08 38.188C0.952 37.916 0.888 37.624 0.888 37.312C0.888 36.888 1.004 36.5 1.236 36.148C1.476 35.788 1.816 35.5 2.256 35.284C2.704 35.068 3.232 34.96 3.84 34.96ZM8.8035 43V34.24H9.7635V37.9C9.9715 37.54 10.2475 37.28 10.5915 37.12C10.9355 36.96 11.3115 36.88 11.7195 36.88C12.1515 36.88 12.5435 36.964 12.8955 37.132C13.2475 37.292 13.5275 37.54 13.7355 37.876C13.9515 38.212 14.0595 38.64 14.0595 39.16V43H13.0995V39.496C13.0995 38.832 12.9555 38.372 12.6675 38.116C12.3875 37.852 12.0395 37.72 11.6235 37.72C11.3355 37.72 11.0475 37.788 10.7595 37.924C10.4715 38.06 10.2315 38.284 10.0395 38.596C9.8555 38.9 9.7635 39.308 9.7635 39.82V43H8.8035ZM18.7412 43.12C18.1732 43.12 17.6652 42.996 17.2172 42.748C16.7772 42.5 16.4332 42.144 16.1852 41.68C15.9372 41.208 15.8132 40.648 15.8132 40C15.8132 39.352 15.9372 38.796 16.1852 38.332C16.4332 37.86 16.7732 37.5 17.2052 37.252C17.6372 37.004 18.1292 36.88 18.6812 36.88C19.2412 36.88 19.7172 37 20.1092 37.24C20.5092 37.48 20.8132 37.808 21.0212 38.224C21.2292 38.632 21.3332 39.092 21.3332 39.604C21.3332 39.74 21.3292 39.864 21.3212 39.976C21.3132 40.088 21.3012 40.188 21.2852 40.276H16.4372V39.424H20.8652L20.3732 39.52C20.3732 38.944 20.2132 38.5 19.8932 38.188C19.5812 37.876 19.1692 37.72 18.6572 37.72C18.2652 37.72 17.9252 37.812 17.6372 37.996C17.3572 38.172 17.1372 38.432 16.9772 38.776C16.8252 39.112 16.7492 39.52 16.7492 40C16.7492 40.472 16.8292 40.88 16.9892 41.224C17.1492 41.568 17.3732 41.832 17.6612 42.016C17.9572 42.192 18.3092 42.28 18.7172 42.28C19.1572 42.28 19.5132 42.196 19.7852 42.028C20.0652 41.86 20.2892 41.632 20.4572 41.344L21.2132 41.788C21.0612 42.06 20.8652 42.296 20.6252 42.496C20.3932 42.696 20.1172 42.852 19.7972 42.964C19.4852 43.068 19.1332 43.12 18.7412 43.12ZM25.667 43.12C25.099 43.12 24.591 42.996 24.143 42.748C23.703 42.5 23.359 42.144 23.111 41.68C22.863 41.208 22.739 40.648 22.739 40C22.739 39.352 22.863 38.796 23.111 38.332C23.359 37.86 23.699 37.5 24.131 37.252C24.563 37.004 25.055 36.88 25.607 36.88C26.167 36.88 26.643 37 27.035 37.24C27.435 37.48 27.739 37.808 27.947 38.224C28.155 38.632 28.259 39.092 28.259 39.604C28.259 39.74 28.255 39.864 28.247 39.976C28.239 40.088 28.227 40.188 28.211 40.276H23.363V39.424H27.791L27.299 39.52C27.299 38.944 27.139 38.5 26.819 38.188C26.507 37.876 26.095 37.72 25.583 37.72C25.191 37.72 24.851 37.812 24.563 37.996C24.283 38.172 24.063 38.432 23.903 38.776C23.751 39.112 23.675 39.52 23.675 40C23.675 40.472 23.755 40.88 23.915 41.224C24.075 41.568 24.299 41.832 24.587 42.016C24.883 42.192 25.235 42.28 25.643 42.28C26.083 42.28 26.439 42.196 26.711 42.028C26.991 41.86 27.215 41.632 27.383 41.344L28.139 41.788C27.987 42.06 27.791 42.296 27.551 42.496C27.319 42.696 27.043 42.852 26.723 42.964C26.411 43.068 26.059 43.12 25.667 43.12ZM31.325 35.296V41.344C31.325 41.64 31.409 41.86 31.577 42.004C31.745 42.148 31.961 42.22 32.225 42.22C32.457 42.22 32.657 42.18 32.825 42.1C32.993 42.02 33.145 41.912 33.281 41.776L33.617 42.58C33.433 42.748 33.213 42.88 32.957 42.976C32.709 43.072 32.421 43.12 32.093 43.12C31.789 43.12 31.505 43.068 31.241 42.964C30.977 42.852 30.765 42.68 30.605 42.448C30.453 42.208 30.373 41.896 30.365 41.512V35.56L31.325 35.296ZM33.509 37V37.828H29.165V37H33.509Z" fill="black"/>
<defs>
<linearGradient id="paint0_linear_1_47" x1="23.581" y1="15.1563" x2="23.581" y2="7.5" gradientUnits="userSpaceOnUse">
<stop stop-color="#20A464"/>
<stop offset="1" stop-color="#207E55"/>
</linearGradient>
</defs>
</svg>
