<svg width="200" height="37" viewBox="0 0 200 37" fill="none" xmlns="http://www.w3.org/2000/svg">
<path d="M169.1 29.1373L173.24 32.573C172.282 33.7622 171.069 34.7219 169.692 35.3817C168.314 36.0414 166.807 36.3845 165.28 36.3858C159.598 36.3858 154.99 31.7203 154.99 25.9658C154.99 20.2113 159.598 15.5508 165.28 15.5508C167.095 15.5544 168.878 16.0396 170.445 16.9569C172.012 17.8741 173.308 19.1907 174.201 20.7722L174.213 20.7998L169.367 23.1615L163.537 25.9784L167.025 21.2878C166.47 21.0768 165.881 20.9694 165.287 20.9709C163.981 21.0002 162.738 21.5397 161.824 22.4739C160.911 23.4082 160.399 24.6629 160.399 25.9696C160.399 27.2762 160.911 28.531 161.824 29.4653C162.738 30.3995 163.981 30.939 165.287 30.9683C166.019 30.9666 166.741 30.8013 167.401 30.4845C168.061 30.1677 168.641 29.7074 169.1 29.1373Z" fill="#2B2C2C"/>
<path d="M75.0358 28.9638L79.1757 32.3969C78.218 33.587 77.0059 34.5475 75.6284 35.2077C74.2509 35.8679 72.743 36.2112 71.2154 36.2123C65.5338 36.2123 60.9262 31.5468 60.9262 25.7922C60.9262 20.0377 65.5338 15.3773 71.2154 15.3773C73.0313 15.3809 74.8138 15.866 76.381 16.7833C77.9482 17.7006 79.2441 19.0171 80.1364 20.5986C80.1405 20.6083 80.1456 20.6176 80.1515 20.6263L75.2873 22.9779L69.4523 25.8048L72.9408 21.1142C72.3859 20.9023 71.7968 20.7941 71.2028 20.7948C69.8965 20.8241 68.6535 21.3636 67.74 22.2978C66.8265 23.2321 66.315 24.4868 66.315 25.7935C66.315 27.1002 66.8265 28.3549 67.74 29.2892C68.6535 30.2234 69.8965 30.7629 71.2028 30.7922C71.9378 30.7935 72.6637 30.6298 73.327 30.3134C73.9904 29.997 74.5743 29.5358 75.0358 28.9638Z" fill="#2B2C2C"/>
<path d="M36.8382 28.9638L40.9781 32.3969C40.0224 33.5854 38.8128 34.545 37.438 35.2052C36.0632 35.8654 34.558 36.2095 33.0329 36.2123C27.3513 36.2123 22.7437 31.5468 22.7437 25.7922C22.7437 20.0377 27.3513 15.3773 33.0329 15.3773C34.8488 15.3809 36.6313 15.866 38.1985 16.7833C39.7657 17.7006 41.0615 19.0171 41.9539 20.5986L41.9665 20.6263L37.1124 22.9779L31.2723 25.8048L34.7583 21.1142C34.2042 20.9024 33.616 20.7941 33.0228 20.7948C31.7165 20.8241 30.4736 21.3636 29.56 22.2978C28.6465 23.2321 28.135 24.4868 28.135 25.7935C28.135 27.1002 28.6465 28.3549 29.56 29.2892C30.4736 30.2234 31.7165 30.7629 33.0228 30.7922C33.7549 30.7912 34.4775 30.6265 35.1376 30.3101C35.7978 29.9937 36.3788 29.5337 36.8382 28.9638Z" fill="#2B2C2C"/>
<path d="M1.20724 9.28572C5.01257 9.28572 8.72987 9.28572 12.4472 9.28572C15.1559 9.28572 17.505 10.1635 19.2731 12.2485C20.4807 13.6097 21.231 15.3153 21.4185 17.1252C21.7102 20.0855 20.7822 22.5302 18.6896 24.7007C20.1685 26.582 19.9773 28.838 19.9723 31.0613C19.9723 32.7414 19.9723 34.419 19.9723 36.1594H14.4794V32.5905C14.4794 31.333 14.4794 30.0528 14.4794 28.7852C14.4794 27.9099 13.6393 27.0246 12.7892 27.007C10.3747 26.9869 7.96025 27.007 5.47032 27.007V36.1695H0V9.28572H1.20724ZM5.44768 19.8189V21.509C7.45975 21.509 9.3687 21.5241 11.2777 21.509C12.0302 21.5144 12.7817 21.4538 13.5236 21.328C14.9321 21.0764 16.1745 19.4291 16.0739 18.0759C15.9532 16.4487 14.3888 14.8063 12.8722 14.7938C11.2223 14.7661 9.57242 14.7938 7.92504 14.7938H5.44768V19.8189Z" fill="#2B2C2C"/>
<path d="M140.772 9.2857H142.319V14.7359C142.08 14.7359 141.816 14.7736 141.564 14.7761C138.732 14.7761 135.895 14.8818 133.068 14.7485C129.995 14.6026 127.43 17.5452 127.48 20.3521C127.513 22.0649 127.48 23.7751 127.48 25.4854C127.48 28.0407 130.048 30.7671 132.691 30.7293C135.873 30.6841 139.057 30.7293 142.299 30.7293V36.177C142.075 36.1921 141.821 36.2173 141.567 36.2173C138.589 36.2173 135.609 36.2525 132.631 36.2173C130.077 36.1935 127.62 35.2312 125.729 33.5135C124.71 32.6544 123.869 31.6022 123.257 30.4174C122.645 29.2326 122.273 27.9386 122.163 26.6096C121.864 23.3777 121.678 20.1257 122.545 16.9693C123.428 13.7575 125.581 11.5468 128.609 10.1786C130.279 9.42403 132.042 9.25049 133.856 9.28067C136.152 9.32846 138.416 9.2857 140.772 9.2857Z" fill="#2B2C2C"/>
<path d="M151.844 15.7042C152.656 15.591 153.398 15.513 154.198 15.43V20.7117C151.607 21.1091 149.776 22.3767 149.167 25.0553C149.113 25.3428 149.089 25.6354 149.097 25.928C149.097 29.3158 149.097 32.7062 149.097 36.1468H143.79V33.7248C143.79 31.1292 143.745 28.5311 143.79 25.928C143.881 21.6272 145.9 18.4708 149.668 16.4486C150.319 16.1041 151.074 15.9683 151.844 15.7042Z" fill="#2B2C2C"/>
<path d="M103.576 22.842C102.663 24.3057 101.74 25.7066 100.762 27.1377C100.386 26.7278 100.036 26.2953 99.713 25.8425C99.7289 25.5717 99.7982 25.3067 99.9167 25.0628C100.734 23.8052 101.574 22.5829 102.462 21.3228C102.869 21.8021 103.241 22.3097 103.576 22.842Z" fill="#020202"/>
<path d="M119.552 9.30585H118.903L117.394 11.6021H117.409C116.042 13.6679 114.683 15.7378 113.332 17.8119C112.057 19.7586 110.792 21.7103 109.509 23.6519C108.649 24.9497 107.764 26.2299 106.888 27.5226L103.586 22.91C102.663 24.3109 101.74 25.7118 100.789 27.2007C102.801 30.2892 104.849 33.2872 106.944 36.3657L124.74 9.28573C122.884 9.28573 121.212 9.26309 119.552 9.30585Z" fill="#BE202E"/>
<path d="M110.412 9.28572H104.599L103.772 10.5433C102.698 12.1102 101.624 13.6796 100.58 15.2691C97.899 19.3486 95.2431 23.4457 92.5318 27.593C91.1234 25.581 89.7527 23.6242 88.3719 21.6801L86.8125 19.3863H85.0696C83.7089 19.3637 82.3206 19.3863 80.8216 19.3863L92.6777 36.4537C92.7523 36.2767 92.8362 36.1037 92.9292 35.9356C94.4056 33.672 95.8794 31.4084 97.3709 29.1625C98.1254 28.0256 98.9076 26.914 99.6772 25.7922C99.7223 25.5409 99.8001 25.2965 99.9086 25.0654C100.726 23.8078 101.566 22.5855 102.479 21.2701C105.153 17.2661 107.731 13.3526 110.412 9.28572Z" fill="#BE202E"/>
<path d="M58.9155 23.2596C58.0654 20.0537 56.112 17.7499 53.0553 16.3481C51.2947 15.5408 49.4814 15.4578 47.6529 15.4754H47.6806L43.8123 15.4603H43.7092V36.162H49.0462V20.737C49.629 20.8676 50.2028 21.0356 50.7641 21.24C53.0276 22.2058 53.9482 24.0518 53.9733 26.4009C54.006 29.419 53.9733 32.4221 53.9733 35.4326C53.9733 35.6841 54.001 35.9356 54.0135 36.1595H59.2952C59.2952 32.91 59.3254 29.7234 59.2801 26.5393C59.2925 25.4353 59.17 24.3339 58.9155 23.2596Z" fill="#2B2C2C"/>
<path d="M195.614 9.97225C195.614 15.7243 195.7 21.4788 195.614 27.2283C195.584 29.1724 194.709 30.9305 193.456 32.4597C191.998 34.2454 190.209 35.5155 187.936 36.0411C184.397 36.8611 181.195 36.2574 178.441 33.7776C176.819 32.3113 175.612 30.596 175.192 28.4053C174.505 24.849 175.167 21.6825 177.707 18.9536C179.97 16.514 182.762 15.5054 186.027 15.6513C186.546 15.6649 187.062 15.7401 187.563 15.8752C187.681 15.9295 187.783 16.0114 187.861 16.114C187.94 16.2165 187.992 16.3365 188.014 16.4637C188.051 18.174 188.034 19.8817 188.034 21.7001C187.47 21.4964 186.985 21.2902 186.482 21.1418C183.212 20.176 179.817 23.3148 180.262 26.5869C180.531 28.5688 181.693 29.9999 183.567 30.7343C185.24 31.3907 186.822 31.1241 188.273 30.0301C189.724 28.936 190.343 27.4924 190.34 25.7142C190.34 20.4627 190.34 15.2112 190.413 9.88171C191.115 9.42899 191.776 9.10203 192.357 8.67195C192.8 8.34248 193.129 8.39026 193.544 8.67195C194.218 9.11964 194.92 9.53714 195.614 9.97225Z" fill="#2B2C2C"/>
<path d="M190.407 7.75901V10.0628L193.008 8.49341L195.608 10.0628V7.75901L193.008 6.18959L190.407 7.75901Z" fill="#020202"/>
<path d="M186.019 4.22032V10.4125L193.008 6.19215L200 10.4125V4.22032L193.008 0L186.019 4.22032Z" fill="#BE202E"/>
</svg>
