<svg width="34" height="46" viewBox="0 0 34 46" fill="none" xmlns="http://www.w3.org/2000/svg">
<path d="M4.488 43.12C3.736 43.12 3.084 42.956 2.532 42.628C1.988 42.292 1.564 41.82 1.26 41.212C0.964 40.604 0.816 39.88 0.816 39.04C0.816 38.2 0.972 37.476 1.284 36.868C1.604 36.26 2.048 35.792 2.616 35.464C3.184 35.128 3.836 34.96 4.572 34.96C5.356 34.96 5.992 35.108 6.48 35.404C6.976 35.7 7.376 36.156 7.68 36.772L6.804 37.252C6.628 36.796 6.348 36.452 5.964 36.22C5.588 35.98 5.124 35.86 4.572 35.86C4.036 35.86 3.56 35.988 3.144 36.244C2.736 36.492 2.412 36.856 2.172 37.336C1.94 37.808 1.824 38.376 1.824 39.04C1.824 39.704 1.924 40.276 2.124 40.756C2.332 41.228 2.636 41.592 3.036 41.848C3.444 42.096 3.94 42.22 4.524 42.22C4.852 42.22 5.156 42.18 5.436 42.1C5.724 42.012 5.972 41.884 6.18 41.716C6.396 41.548 6.564 41.336 6.684 41.08C6.804 40.824 6.864 40.524 6.864 40.18V39.904H4.344V39.004H7.74V43H6.984L6.936 41.524L7.14 41.56C6.932 42.056 6.604 42.44 6.156 42.712C5.708 42.984 5.152 43.12 4.488 43.12ZM9.79959 43V37H10.6396L10.6996 37.936C10.9156 37.568 11.1956 37.3 11.5396 37.132C11.8916 36.964 12.2516 36.88 12.6196 36.88C13.0436 36.88 13.4436 36.976 13.8196 37.168C14.1956 37.36 14.4836 37.656 14.6836 38.056C14.8116 37.784 14.9916 37.564 15.2236 37.396C15.4556 37.22 15.7076 37.092 15.9796 37.012C16.2596 36.924 16.5236 36.88 16.7716 36.88C17.1556 36.88 17.5196 36.96 17.8636 37.12C18.2156 37.28 18.5036 37.528 18.7276 37.864C18.9516 38.2 19.0636 38.632 19.0636 39.16V43H18.1036V39.256C18.1036 38.712 17.9676 38.32 17.6956 38.08C17.4236 37.84 17.0876 37.72 16.6876 37.72C16.3756 37.72 16.0836 37.796 15.8116 37.948C15.5396 38.1 15.3196 38.324 15.1516 38.62C14.9916 38.916 14.9116 39.28 14.9116 39.712V43H13.9516V39.256C13.9516 38.712 13.8156 38.32 13.5436 38.08C13.2716 37.84 12.9356 37.72 12.5356 37.72C12.2716 37.72 11.9996 37.792 11.7196 37.936C11.4476 38.072 11.2196 38.292 11.0356 38.596C10.8516 38.9 10.7596 39.3 10.7596 39.796V43H9.79959ZM24.7411 39.124C24.7411 38.676 24.6211 38.332 24.3811 38.092C24.1411 37.844 23.8011 37.72 23.3611 37.72C22.9451 37.72 22.5931 37.812 22.3051 37.996C22.0171 38.172 21.8051 38.46 21.6691 38.86L20.8891 38.38C21.0491 37.932 21.3451 37.572 21.7771 37.3C22.2091 37.02 22.7451 36.88 23.3851 36.88C23.8171 36.88 24.2091 36.956 24.5611 37.108C24.9131 37.252 25.1891 37.476 25.3891 37.78C25.5971 38.076 25.7011 38.46 25.7011 38.932V41.836C25.7011 42.124 25.8531 42.268 26.1571 42.268C26.3091 42.268 26.4571 42.248 26.6011 42.208L26.5531 42.964C26.3931 43.044 26.1851 43.084 25.9291 43.084C25.6971 43.084 25.4891 43.04 25.3051 42.952C25.1211 42.864 24.9771 42.732 24.8731 42.556C24.7691 42.372 24.7171 42.144 24.7171 41.872V41.752L24.9571 41.788C24.8611 42.1 24.6971 42.356 24.4651 42.556C24.2331 42.748 23.9731 42.892 23.6851 42.988C23.3971 43.076 23.1131 43.12 22.8331 43.12C22.4811 43.12 22.1531 43.06 21.8491 42.94C21.5451 42.82 21.3011 42.64 21.1171 42.4C20.9411 42.152 20.8531 41.848 20.8531 41.488C20.8531 41.04 21.0011 40.672 21.2971 40.384C21.6011 40.088 22.0211 39.888 22.5571 39.784L24.9331 39.316V40.108L23.0011 40.504C22.6091 40.584 22.3171 40.696 22.1251 40.84C21.9331 40.984 21.8371 41.184 21.8371 41.44C21.8371 41.688 21.9331 41.892 22.1251 42.052C22.3251 42.204 22.6051 42.28 22.9651 42.28C23.1971 42.28 23.4171 42.252 23.6251 42.196C23.8411 42.132 24.0331 42.04 24.2011 41.92C24.3691 41.792 24.5011 41.636 24.5971 41.452C24.6931 41.26 24.7411 41.036 24.7411 40.78V39.124ZM28.514 35.848C28.298 35.848 28.122 35.784 27.986 35.656C27.858 35.52 27.794 35.344 27.794 35.128C27.794 34.912 27.858 34.74 27.986 34.612C28.122 34.476 28.298 34.408 28.514 34.408C28.73 34.408 28.902 34.476 29.03 34.612C29.166 34.74 29.234 34.912 29.234 35.128C29.234 35.344 29.166 35.52 29.03 35.656C28.902 35.784 28.73 35.848 28.514 35.848ZM28.994 37V43H28.034V37H28.994ZM32.1335 34.24V41.476C32.1335 41.78 32.1895 41.992 32.3015 42.112C32.4135 42.224 32.5935 42.28 32.8415 42.28C33.0015 42.28 33.1335 42.268 33.2375 42.244C33.3415 42.22 33.4815 42.176 33.6575 42.112L33.5015 42.952C33.3735 43.008 33.2335 43.048 33.0815 43.072C32.9295 43.104 32.7735 43.12 32.6135 43.12C32.1255 43.12 31.7615 42.988 31.5215 42.724C31.2895 42.46 31.1735 42.056 31.1735 41.512V34.24H32.1335Z" fill="black"/>
<path d="M4.04545 22.5055H8.8182V10.9146L5.69293 5.45734L2 5.80099V20.4601C2 21.5902 2.91535 22.5055 4.04545 22.5055Z" fill="#0085F7"/>
<path d="M25.1818 22.5055H29.9546C31.0847 22.5055 32 21.5902 32 20.4601V5.80099L28.3124 5.45734L25.1819 10.9146V22.5055H25.1818Z" fill="#00A94B"/>
<path d="M25.1818 2.05095L22.3783 7.40073L25.1818 10.9146L32 5.80095V3.0737C32 0.545851 29.1142 -0.8979 27.0909 0.619151L25.1818 2.05095Z" fill="#FFBC00"/>
<path fill-rule="evenodd" clip-rule="evenodd" d="M8.81823 10.9146L6.14677 5.27139L8.81823 2.0509L17 8.18725L25.1818 2.0509V10.9146L17 17.0509L8.81823 10.9146Z" fill="#FF4131"/>
<path d="M2 3.0737V5.80095L8.8182 10.9146V2.05095L6.9091 0.619151C4.8858 -0.8979 2 0.545851 2 3.0737Z" fill="#E51C19"/>
</svg>
