<svg width="24" height="24" viewBox="0 0 24 24" fill="none" xmlns="http://www.w3.org/2000/svg">
<g clip-path="url(#clip0_1_84)">
<path d="M7.058 4.962C7.897 4.962 8.653 5.308 9.197 5.863C7.872 6.763 6.999 8.282 6.999 10.001C6.999 10.329 7.035 10.648 7.096 10.959C7.083 10.959 7.071 10.963 7.058 10.963C5.401 10.963 4.058 9.62 4.058 7.963C4.058 6.306 5.401 4.962 7.058 4.962ZM17 5C16.159 5 15.401 5.349 14.856 5.906C16.149 6.811 17 8.305 17 10C17 10.339 16.965 10.67 16.9 10.99C16.934 10.991 16.966 11 17 11C18.657 11 20 9.657 20 8C20 6.343 18.657 5 17 5ZM12 13C13.657 13 15 11.657 15 10C15 8.343 13.657 7 12 7C10.343 7 9 8.343 9 10C9 11.657 10.343 13 12 13ZM12 15C10.246 15 8.665 16.063 8.065 17.646C7.869 18.163 8.129 18.74 8.646 18.936C9.161 19.131 9.74 18.872 9.936 18.355C10.243 17.544 11.073 17.001 12.001 17.001C12.929 17.001 13.759 17.545 14.066 18.355C14.217 18.754 14.598 19.001 15.001 19.001C15.119 19.001 15.239 18.98 15.355 18.937C15.871 18.741 16.131 18.164 15.936 17.647C15.336 16.065 13.755 15.001 12.001 15.001L12 15ZM15.7 13.197C15.173 13.363 14.88 13.924 15.046 14.451C15.212 14.977 15.775 15.269 16.3 15.105C16.523 15.035 16.758 15 17 15C17.928 15 18.758 15.544 19.065 16.354C19.216 16.753 19.597 17 20 17C20.118 17 20.238 16.979 20.354 16.936C20.87 16.74 21.13 16.163 20.935 15.646C20.335 14.064 18.754 13 17 13C16.554 13 16.117 13.066 15.7 13.197ZM7 13C5.246 13 3.665 14.063 3.065 15.646C2.869 16.163 3.129 16.74 3.646 16.936C3.763 16.98 3.882 17 4 17C4.403 17 4.784 16.754 4.935 16.354C5.242 15.543 6.072 15 7 15C7.242 15 7.478 15.035 7.7 15.105C8.225 15.269 8.788 14.977 8.954 14.451C9.12 13.924 8.827 13.363 8.3 13.197C7.883 13.066 7.446 13 7 13ZM7 22H5C3.346 22 2 20.654 2 19V17C2 16.447 1.552 16 1 16C0.448 16 0 16.447 0 17V19C0 21.757 2.243 24 5 24H7C7.552 24 8 23.553 8 23C8 22.447 7.552 22 7 22ZM23 16C22.448 16 22 16.447 22 17V19C22 20.654 20.654 22 19 22H17C16.448 22 16 22.447 16 23C16 23.553 16.448 24 17 24H19C21.757 24 24 21.757 24 19V17C24 16.447 23.552 16 23 16ZM19 0H17C16.448 0 16 0.447 16 1C16 1.553 16.448 2 17 2H19C20.654 2 22 3.346 22 5V7C22 7.553 22.448 8 23 8C23.552 8 24 7.553 24 7V5C24 2.243 21.757 0 19 0ZM1 8C1.552 8 2 7.553 2 7V5C2 3.346 3.346 2 5 2H7C7.552 2 8 1.553 8 1C8 0.447 7.552 0 7 0H5C2.243 0 0 2.243 0 5V7C0 7.553 0.448 8 1 8Z" fill="#202020"/>
</g>
<defs>
<clipPath id="clip0_1_84">
<rect width="24" height="24" fill="white"/>
</clipPath>
</defs>
</svg>
