<svg width="149" height="6" viewBox="0 0 149 6" fill="none" xmlns="http://www.w3.org/2000/svg">
<path d="M0.113249 3L3 5.88675L5.88675 3L3 0.113249L0.113249 3ZM148.887 3L146 0.113249L143.113 3L146 5.88675L148.887 3ZM4.48958 3.5C4.76573 3.5 4.98958 3.27614 4.98958 3C4.98958 2.72386 4.76573 2.5 4.48958 2.5V3.5ZM7.46875 2.5C7.19261 2.5 6.96875 2.72386 6.96875 3C6.96875 3.27614 7.19261 3.5 7.46875 3.5V2.5ZM10.4479 3.5C10.7241 3.5 10.9479 3.27614 10.9479 3C10.9479 2.72386 10.7241 2.5 10.4479 2.5V3.5ZM13.4271 2.5C13.1509 2.5 12.9271 2.72386 12.9271 3C12.9271 3.27614 13.1509 3.5 13.4271 3.5V2.5ZM16.4063 3.5C16.6824 3.5 16.9063 3.27614 16.9063 3C16.9063 2.72386 16.6824 2.5 16.4063 2.5V3.5ZM19.3854 2.5C19.1093 2.5 18.8854 2.72386 18.8854 3C18.8854 3.27614 19.1093 3.5 19.3854 3.5V2.5ZM22.3646 3.5C22.6407 3.5 22.8646 3.27614 22.8646 3C22.8646 2.72386 22.6407 2.5 22.3646 2.5V3.5ZM25.3438 2.5C25.0676 2.5 24.8438 2.72386 24.8438 3C24.8438 3.27614 25.0676 3.5 25.3438 3.5V2.5ZM28.3229 3.5C28.5991 3.5 28.8229 3.27614 28.8229 3C28.8229 2.72386 28.5991 2.5 28.3229 2.5V3.5ZM31.3021 2.5C31.0259 2.5 30.8021 2.72386 30.8021 3C30.8021 3.27614 31.0259 3.5 31.3021 3.5V2.5ZM34.2812 3.5C34.5574 3.5 34.7812 3.27614 34.7812 3C34.7812 2.72386 34.5574 2.5 34.2812 2.5V3.5ZM37.2604 2.5C36.9843 2.5 36.7604 2.72386 36.7604 3C36.7604 3.27614 36.9843 3.5 37.2604 3.5V2.5ZM40.2396 3.5C40.5157 3.5 40.7396 3.27614 40.7396 3C40.7396 2.72386 40.5157 2.5 40.2396 2.5V3.5ZM43.2188 2.5C42.9426 2.5 42.7188 2.72386 42.7188 3C42.7188 3.27614 42.9426 3.5 43.2188 3.5V2.5ZM46.1979 3.5C46.4741 3.5 46.6979 3.27614 46.6979 3C46.6979 2.72386 46.4741 2.5 46.1979 2.5V3.5ZM49.1771 2.5C48.9009 2.5 48.6771 2.72386 48.6771 3C48.6771 3.27614 48.9009 3.5 49.1771 3.5V2.5ZM52.1563 3.5C52.4324 3.5 52.6563 3.27614 52.6563 3C52.6563 2.72386 52.4324 2.5 52.1563 2.5V3.5ZM55.1354 2.5C54.8593 2.5 54.6354 2.72386 54.6354 3C54.6354 3.27614 54.8593 3.5 55.1354 3.5V2.5ZM58.1146 3.5C58.3907 3.5 58.6146 3.27614 58.6146 3C58.6146 2.72386 58.3907 2.5 58.1146 2.5V3.5ZM61.0938 2.5C60.8176 2.5 60.5938 2.72386 60.5938 3C60.5938 3.27614 60.8176 3.5 61.0938 3.5V2.5ZM64.0729 3.5C64.3491 3.5 64.5729 3.27614 64.5729 3C64.5729 2.72386 64.3491 2.5 64.0729 2.5V3.5ZM67.0521 2.5C66.776 2.5 66.5521 2.72386 66.5521 3C66.5521 3.27614 66.776 3.5 67.0521 3.5V2.5ZM70.0313 3.5C70.3074 3.5 70.5313 3.27614 70.5313 3C70.5313 2.72386 70.3074 2.5 70.0313 2.5V3.5ZM73.0104 2.5C72.7343 2.5 72.5104 2.72386 72.5104 3C72.5104 3.27614 72.7343 3.5 73.0104 3.5V2.5ZM75.9896 3.5C76.2657 3.5 76.4896 3.27614 76.4896 3C76.4896 2.72386 76.2657 2.5 75.9896 2.5V3.5ZM78.9688 2.5C78.6926 2.5 78.4688 2.72386 78.4688 3C78.4688 3.27614 78.6926 3.5 78.9688 3.5V2.5ZM81.9479 3.5C82.2241 3.5 82.4479 3.27614 82.4479 3C82.4479 2.72386 82.2241 2.5 81.9479 2.5V3.5ZM84.9271 2.5C84.6509 2.5 84.4271 2.72386 84.4271 3C84.4271 3.27614 84.6509 3.5 84.9271 3.5V2.5ZM87.9062 3.5C88.1824 3.5 88.4062 3.27614 88.4062 3C88.4062 2.72386 88.1824 2.5 87.9062 2.5V3.5ZM90.8854 2.5C90.6093 2.5 90.3854 2.72386 90.3854 3C90.3854 3.27614 90.6093 3.5 90.8854 3.5V2.5ZM93.8646 3.5C94.1407 3.5 94.3646 3.27614 94.3646 3C94.3646 2.72386 94.1407 2.5 93.8646 2.5V3.5ZM96.8437 2.5C96.5676 2.5 96.3437 2.72386 96.3437 3C96.3437 3.27614 96.5676 3.5 96.8437 3.5V2.5ZM99.8229 3.5C100.099 3.5 100.323 3.27614 100.323 3C100.323 2.72386 100.099 2.5 99.8229 2.5V3.5ZM102.802 2.5C102.526 2.5 102.302 2.72386 102.302 3C102.302 3.27614 102.526 3.5 102.802 3.5V2.5ZM105.781 3.5C106.057 3.5 106.281 3.27614 106.281 3C106.281 2.72386 106.057 2.5 105.781 2.5V3.5ZM108.76 2.5C108.484 2.5 108.26 2.72386 108.26 3C108.26 3.27614 108.484 3.5 108.76 3.5V2.5ZM111.74 3.5C112.016 3.5 112.24 3.27614 112.24 3C112.24 2.72386 112.016 2.5 111.74 2.5V3.5ZM114.719 2.5C114.443 2.5 114.219 2.72386 114.219 3C114.219 3.27614 114.443 3.5 114.719 3.5V2.5ZM117.698 3.5C117.974 3.5 118.198 3.27614 118.198 3C118.198 2.72386 117.974 2.5 117.698 2.5V3.5ZM120.677 2.5C120.401 2.5 120.177 2.72386 120.177 3C120.177 3.27614 120.401 3.5 120.677 3.5V2.5ZM123.656 3.5C123.932 3.5 124.156 3.27614 124.156 3C124.156 2.72386 123.932 2.5 123.656 2.5V3.5ZM126.635 2.5C126.359 2.5 126.135 2.72386 126.135 3C126.135 3.27614 126.359 3.5 126.635 3.5V2.5ZM129.615 3.5C129.891 3.5 130.115 3.27614 130.115 3C130.115 2.72386 129.891 2.5 129.615 2.5V3.5ZM132.594 2.5C132.318 2.5 132.094 2.72386 132.094 3C132.094 3.27614 132.318 3.5 132.594 3.5V2.5ZM135.573 3.5C135.849 3.5 136.073 3.27614 136.073 3C136.073 2.72386 135.849 2.5 135.573 2.5V3.5ZM138.552 2.5C138.276 2.5 138.052 2.72386 138.052 3C138.052 3.27614 138.276 3.5 138.552 3.5V2.5ZM141.531 3.5C141.807 3.5 142.031 3.27614 142.031 3C142.031 2.72386 141.807 2.5 141.531 2.5V3.5ZM144.51 2.5C144.234 2.5 144.01 2.72386 144.01 3C144.01 3.27614 144.234 3.5 144.51 3.5V2.5ZM3 3V3.5H4.48958V3V2.5H3V3ZM7.46875 3V3.5H10.4479V3V2.5H7.46875V3ZM13.4271 3V3.5H16.4063V3V2.5H13.4271V3ZM19.3854 3V3.5H22.3646V3V2.5H19.3854V3ZM25.3438 3V3.5H28.3229V3V2.5H25.3438V3ZM31.3021 3V3.5H34.2812V3V2.5H31.3021V3ZM37.2604 3V3.5H40.2396V3V2.5H37.2604V3ZM43.2188 3V3.5H46.1979V3V2.5H43.2188V3ZM49.1771 3V3.5H52.1563V3V2.5H49.1771V3ZM55.1354 3V3.5H58.1146V3V2.5H55.1354V3ZM61.0938 3V3.5H64.0729V3V2.5H61.0938V3ZM67.0521 3V3.5H70.0313V3V2.5H67.0521V3ZM73.0104 3V3.5H75.9896V3V2.5H73.0104V3ZM78.9688 3V3.5H81.9479V3V2.5H78.9688V3ZM84.9271 3V3.5H87.9062V3V2.5H84.9271V3ZM90.8854 3V3.5H93.8646V3V2.5H90.8854V3ZM96.8437 3V3.5H99.8229V3V2.5H96.8437V3ZM102.802 3V3.5H105.781V3V2.5H102.802V3ZM108.76 3V3.5H111.74V3V2.5H108.76V3ZM114.719 3V3.5H117.698V3V2.5H114.719V3ZM120.677 3V3.5H123.656V3V2.5H120.677V3ZM126.635 3V3.5H129.615V3V2.5H126.635V3ZM132.594 3V3.5H135.573V3V2.5H132.594V3ZM138.552 3V3.5H141.531V3V2.5H138.552V3ZM144.51 3V3.5H146V3V2.5H144.51V3Z" fill="#BE202E"/>
</svg>
